HIERARCHY
ROOT Hips
{
  OFFSET -331.093 83.8371 -317.828
  CHANNELS 6 Xposition Yposition Zposition Zrotation Xrotation Yrotation
  JOINT LeftUpLeg
  {
    OFFSET 8.64259 1.95398 -2.38835
    CHANNELS 3 Zrotation Xrotation Yrotation
    JOINT LeftLeg
    {
      OFFSET 43.7702 0 0
      CHANNELS 3 Zrotation Xrotation Yrotation
      JOINT LeftFoot
      {
        OFFSET 40.6238 0 0
        CHANNELS 3 Zrotation Xrotation Yrotation
        JOINT LeftToeBase
        {
          OFFSET 12.7242 0 0
          CHANNELS 3 Zrotation Xrotation Yrotation
          End Site
          {
            OFFSET 0 0 0
          }
        }
      }
    }
  }
  JOINT RightUpLeg
  {
    OFFSET -8.2249 1.95398 -2.59336
    CHANNELS 3 Zrotation Xrotation Yrotation
    JOINT RightLeg
    {
      OFFSET 43.5653 0 0
      CHANNELS 3 Zrotation Xrotation Yrotation
      JOINT RightFoot
      {
        OFFSET 40.6238 0 0
        CHANNELS 3 Zrotation Xrotation Yrotation
        JOINT RightToeBase
        {
          OFFSET 12.7242 0 0
          CHANNELS 3 Zrotation Xrotation Yrotation
          End Site
          {
            OFFSET 0 0 0
          }
        }
      }
    }
  }
  JOINT Spine
  {
    OFFSET 0.165834 0.87714 6.61349
    CHANNELS 3 Zrotation Xrotation Yrotation
    JOINT Spine1
    {
      OFFSET 7.38963 1.71661e-005 0
      CHANNELS 3 Zrotation Xrotation Yrotation
      JOINT Spine2
      {
        OFFSET 11.9445 1.14441e-005 0
        CHANNELS 3 Zrotation Xrotation Yrotation
        JOINT Spine3
        {
          OFFSET 14.7254 4.19617e-005 0
          CHANNELS 3 Zrotation Xrotation Yrotation
          JOINT Spine4
          {
            OFFSET 10.9679 0 0
            CHANNELS 3 Zrotation Xrotation Yrotation
            JOINT RightShoulder
            {
              OFFSET 2.46616 -1.6653 3.69651
              CHANNELS 3 Zrotation Xrotation Yrotation
              JOINT RightArm
              {
                OFFSET 13.0012 0 0
                CHANNELS 3 Zrotation Xrotation Yrotation
                JOINT RightForeArm
                {
                  OFFSET 28.7848 1.62311e-005 0
                  CHANNELS 3 Zrotation Xrotation Yrotation
                  JOINT RightHand
                  {
                    OFFSET 26.5688 1.62095e-005 0
                    CHANNELS 3 Zrotation Xrotation Yrotation
                    End Site
                    {
                      OFFSET 0 0 0
                    }
                  }
                }
              }
            }
            JOINT LeftShoulder
            {
              OFFSET 2.38034 -1.29275 -3.7523
              CHANNELS 3 Zrotation Xrotation Yrotation
              JOINT LeftArm
              {
                OFFSET 16.3182 6.07031e-005 0
                CHANNELS 3 Zrotation Xrotation Yrotation
                JOINT LeftForeArm
                {
                  OFFSET 27.0901 0 0
                  CHANNELS 3 Zrotation Xrotation Yrotation
                  JOINT LeftHand
                  {
                    OFFSET 24.5451 1.51738e-005 0
                    CHANNELS 3 Zrotation Xrotation Yrotation
                    End Site
                    {
                      OFFSET 0 0 0
                    }
                  }
                }
              }
            }
            JOINT Neck
            {
              OFFSET 5.0226 -0.0266342 0
              CHANNELS 3 Zrotation Xrotation Yrotation
              JOINT Head
              {
                OFFSET 6.69364 2.86102e-005 0
                CHANNELS 3 Zrotation Xrotation Yrotation
                End Site
                {
                  OFFSET 0 0 0
                }
              }
            }
          }
        }
      }
    }
  }
}
MOTION
Frames:	17
Frame Time:	0.0416667
31.0869 91.8027 -314.929 30.0557 -76.7975 24.0761 -174.657 4.09372 83.6484 -29.135 22.0426 -2.81906 66.0959 11.2554 11.6136 53.8067 25.7784 10.1086 165.387 58.6444 86.6369 149.077 59.907 165.699 54.617 11.5091 8.1024 47.3404 -16.6589 -52.7238 -0.799649 7.73893 -89.032 11.4026 -1.1393 2.04278 -0.269488 -1.04832 2.09091 -22.7999 -1.70051 1.60606 -2.7873 -1.7005 1.60607 92.0214 -38.3339 -99.961 38.0932 -24.0993 13.2353 -17.1131 0.0111538 -78.978 -13.9367 0.851457 -13.6686 -93.3192 -47.4341 73.572 -23.559 -6.83051 31.9668 15.6404 -15.1584 -128.73 21.2228 -16.6743 -74.194 3.8323 -0.0734806 -0.157345 10.7353 -0.239299 -1.74737 
31.1056 91.1394 -316.641 30.5422 -76.5583 24.5113 -175.547 8.16664 82.3793 -35.1111 18.754 -1.79839 66.7538 12.3191 11.8667 56.5946 27.7804 9.01193 164.608 59.6368 86.3816 145.969 57.411 165.523 56.0721 12.2599 8.32957 45.8359 -14.7275 -49.3297 -1.02182 7.84641 -88.9668 11.1921 -1.55335 2.20886 -0.479888 -1.45465 2.27505 -23.0132 -2.1453 1.64002 -3.00056 -2.14531 1.64002 91.5275 -39.948 -100.404 38.927 -22.1977 17.7335 -19.2089 -0.646934 -79.2118 -18.7116 -0.35295 -4.15961 -95.4741 -48.9594 70.797 -19.6238 -7.34821 24.6555 19.8331 -15.1822 -120.553 23.9761 -17.5949 -71.0859 5.50334 0.734372 -0.188089 10.4421 0.572215 -1.6323 
31.056 90.452 -318.792 30.5845 -75.6446 25.6903 -175.639 13.7275 82.5823 -41.7333 18.1049 -1.26824 65.6062 10.7387 11.1812 60.1977 31.3689 9.01714 169.049 60.8433 84.6063 133.979 51.7305 171.44 48.8894 6.99095 5.79836 40.8668 -12.4732 -49.4231 -1.24327 7.7901 -89.0663 11.3108 -2.03898 2.06365 -0.360311 -1.9462 2.15135 -22.9017 -2.56486 1.35539 -2.88909 -2.56486 1.35538 90.7278 -41.3428 -101.405 39.304 -22.3668 22.3898 -17.3685 -2.90425 -75.3175 -33.6881 -1.49052 0.212706 -95.5405 -48.2418 70.4764 -18.931 -4.45808 16.9278 27.7311 -15.3523 -109.486 28.6795 -17.9231 -63.5464 6.07544 1.62268 -0.216098 9.92924 1.44172 -1.7131 
30.794 89.7441 -317.067 17.1216 -76.3804 15.6222 -174.232 14.4986 86.0957 -44.877 18.3353 -1.23891 68.154 12.9311 12.3207 56.8012 29.7088 11.4367 175.158 60.7692 85.5674 125.954 58.6762 172.44 33.6896 -3.97048 -0.64945 24.8728 -5.30535 -66.7251 -1.06049 7.64373 -89.3824 11.5976 -1.82033 1.41918 -0.0729335 -1.7561 1.49792 -22.6158 -2.16265 0.806377 -2.60316 -2.16265 0.80637 90.4848 -41.9293 -101.657 40.9904 -23.5886 29.0331 -14.9773 -1.99023 -74.725 -31.304 -1.20597 -0.698433 -94.4327 -46.7193 71.6726 -20.1892 -0.751717 12.4267 23.4435 -11.3939 -104.254 30.6991 -13.5717 -48.0012 5.91101 2.99473 0.161932 8.36123 2.73551 -1.67119 
30.4922 89.3962 -311.113 -6.70432 -77.8308 -5.87281 -172.143 9.44549 89.2639 -43.7611 19.3878 -2.2372 68.018 10.8186 10.9355 51.883 30.1324 19.4285 176.297 59.4093 91.7144 172.775 87.186 123.624 19.6376 -6.40802 -4.74842 -25.4448 32.6998 -74.2705 -0.695656 7.60839 -89.5915 11.6618 -1.19214 0.938431 -0.00892923 -1.1497 0.98999 -22.5474 -1.41907 0.536714 -2.53473 -1.41905 0.536731 90.8229 -41.7293 -101.141 43.1668 -24.8944 35.593 -15.0526 -1.30907 -75.4703 -31.1118 -1.06852 -1.18361 -93.0157 -45.4015 73.4544 -22.4059 3.07192 9.84848 14.9715 -9.65026 -106.558 31.1171 -2.32166 -11.7764 5.05169 4.41732 0.429682 7.93642 4.14974 -0.94924 
30.1085 89.8557 -302.582 -13.4102 -77.8226 -10.9528 -171.631 2.06496 90.5046 -36.8628 20.3409 -1.70214 62.8198 4.00301 5.6699 52.8847 33.5652 22.5007 172.176 58.5693 101.13 -67.4933 31.6455 1.73042 43.2113 3.78332 4.15277 65.3325 6.41609 30.6075 -0.747867 7.44962 -89.8123 11.9785 -1.3984 0.52646 0.308174 -1.37389 0.587481 -22.2329 -1.49196 0.0817504 -2.22031 -1.49197 0.081742 91.0878 -41.2943 -100.807 45.4981 -25.3476 42.1222 -16.616 -0.210281 -77.5682 -29.234 -1.2277 -0.298424 -91.6101 -43.6721 75.1688 -24.1827 5.91241 9.37825 11.2377 -10.8637 -113.226 32.264 3.3235 6.57382 4.3932 5.6817 0.0947548 7.04486 5.56835 0.414665 
30.058 90.4964 -293.801 -12.6999 -77.8761 -10.0446 -172.171 -4.90699 94.3964 -28.0436 20.616 -0.486559 53.2949 -4.688 -1.88738 41.3008 25.1699 30.9865 174.417 53.346 98.9724 -52.3583 7.58459 1.71433 64.2263 -1.22983 -1.01343 34.7762 -2.65463 -10.6292 -0.91373 7.31255 -89.9644 12.2522 -1.7991 0.272465 0.582466 -1.78537 0.351403 -21.9625 -1.79779 -0.281012 -1.94985 -1.79779 -0.28102 91.0676 -40.4152 -101.074 46.6693 -23.1177 46.8186 -16.6565 0.14048 -78.176 -28.1863 -1.05052 -0.852298 -91.2594 -43.2655 75.6157 -24.1757 6.64161 9.29001 10.5906 -12.3225 -119.426 32.7187 3.0892 5.65742 3.63693 6.49592 0.266713 6.63721 6.4292 1.58192 
29.6761 91.0575 -284.919 -11.9455 -79.1993 -9.27563 -172.326 -10.2669 94.2038 -25.5774 23.3694 0.406676 45.2568 -9.79317 -4.19333 26.3523 3.82648 24.788 176.573 49.9404 97.1054 -37.6303 8.49282 1.43199 57.0141 1.02734 0.707258 35.7528 -1.60162 -8.1945 -1.06413 7.36453 -90.0647 12.1477 -2.14577 0.108829 0.478558 -2.1389 0.203201 -22.0702 -2.07924 -0.541382 -2.05757 -2.07923 -0.541379 91.2132 -39.4748 -101.076 46.0881 -20.7935 48.1612 -15.6261 0.0398792 -78.0152 -26.589 -0.847944 -1.50935 -91.2709 -43.3829 75.6296 -24.205 7.84905 10.3265 10.8129 -14.2067 -124.383 31.1809 2.81302 5.24096 3.95537 7.18476 0.818522 5.43304 6.98753 1.50126 
29.8747 90.9473 -276.18 -11.6118 -78.7467 -11.032 -174.381 -9.5879 91.1238 -30.8189 22.8911 0.768307 43.893 -10.3908 -2.56766 22.653 -2.45912 13.7986 178.454 49.2953 94.1477 -31.3913 5.52732 0.324836 53.3699 2.32643 1.73645 38.2183 -2.13221 -9.6678 -1.09757 7.18379 -89.9159 12.5123 -2.14049 0.41534 0.843061 -2.12013 0.509185 -21.7062 -2.16632 -0.247476 -1.69354 -2.16631 -0.247471 91.7761 -38.8682 -100.254 45.047 -18.2783 47.1896 -13.9322 0.454472 -77.5165 -26.0815 -0.55745 -2.74804 -91.0768 -42.9979 75.8354 -25.4026 10.6627 11.099 12.225 -16.5353 -125.966 31.2452 2.90252 5.51532 3.57663 7.21409 1.44532 5.23547 6.92353 1.64547 
30.0847 90.5328 -267.646 -12.6795 -80.1224 -13.8647 -175.007 -6.97422 88.8351 -41.3611 18.9916 0.764765 47.9855 -7.91818 -1.49543 22.8556 -2.0519 14.9609 177.842 48.9264 93.2165 -37.6769 3.69689 0.0559881 58.125 1.23978 0.832433 32.2679 -1.23891 -7.74362 -1.06287 7.23132 -89.8255 12.418 -2.02892 0.580432 0.748509 -2.0014 0.669196 -21.7994 -2.10953 -0.0564468 -1.78672 -2.10953 -0.0564477 92.0928 -38.2005 -99.869 43.362 -16.2068 44.7097 -13.5821 0.392401 -77.2496 -25.6828 -0.555766 -2.72116 -91.6633 -43.4801 75.0315 -27.0694 13.2066 12.4405 12.5789 -17.1366 -123.976 30.839 2.63087 4.71146 2.15788 6.61849 2.83402 6.17412 6.13595 1.3072 
30.2412 89.892 -259.235 -17.6352 -82.2265 -19.2186 -174.162 -2.00848 87.441 -53.1721 15.9773 0.658253 49.6843 -7.16833 -0.783506 28.1556 4.6279 20.9454 176.399 46.8612 94.314 -49.2845 6.28339 0.0472506 68.1989 -2.68395 -1.6696 26.2918 -0.354982 -4.35882 -0.93267 7.41282 -89.8637 12.053 -1.78975 0.468313 0.38314 -1.7674 0.546644 -22.1619 -1.84773 -0.091409 -2.14923 -1.84773 -0.0914149 92.1164 -38.5296 -99.7421 40.6598 -15.2321 40.6336 -15.0961 -0.180498 -76.789 -26.0599 -0.562348 -2.7388 -92.4557 -44.3191 74.0162 -29.0035 15.3146 13.952 11.6176 -15.8113 -118.326 27.8908 2.07228 3.64375 0.404366 6.12834 4.23271 7.86978 5.4806 0.794977 
30.3684 89.4546 -251.255 -23.0163 -84.8312 -23.6589 -173.289 3.50754 90.5588 -64.8284 12.1453 1.21489 53.0463 -5.04086 0.211992 31.9242 9.34746 22.6394 175.868 42.4926 95.3612 -56.7214 6.91169 -0.492813 72.7037 -4.67624 -2.68677 31.6105 -0.650473 -4.12915 -0.852378 7.67228 -89.9942 11.5315 -1.69299 0.185502 -0.138308 -1.68319 0.25985 -22.6826 -1.67046 -0.332045 -2.66992 -1.67046 -0.332054 91.5077 -40.0673 -100.408 36.7078 -14.9675 34.5387 -15.5899 -1.16708 -75.7028 -25.8741 -0.662262 -2.26444 -93.3433 -45.2252 72.8951 -31.2343 15.6592 16.0208 12.5571 -13.9796 -110.483 30.8254 2.72045 5.02075 -1.36741 5.69356 3.87068 9.65873 5.2671 1.6451 
29.2861 89.0921 -243.234 -67.8524 -80.7538 -63.461 -167.775 12.4264 94.611 -73.7496 10.111 0.629896 56.3688 -2.94012 1.29783 34.4578 12.9715 24.4078 178.755 36.8032 102.542 -58.275 8.42303 -1.53196 75.9762 -6.60946 -3.52954 36.4717 -0.9344 -4.27494 0.0969479 7.85805 -90.5528 11.1561 -0.0638195 -1.09399 -0.515264 -0.111917 -1.09013 -23.0469 0.267896 -1.06261 -3.03422 0.267892 -1.06261 91.0763 -40.6176 -101.005 32.8321 -15.1404 26.3708 -15.3399 -2.03565 -73.5702 -25.858 -1.01421 -0.645579 -95.0638 -47.6835 71.0156 -31.6051 14.7232 17.7288 15.7013 -11.4469 -100.812 28.8187 2.90039 6.31646 -1.33917 5.34678 4.89354 9.91165 4.74901 1.18884 
28.9745 88.7458 -235.505 -77.6453 -79.7972 -72.3243 -166.709 21.0666 95.323 -78.9429 7.187 0.8862 60.1021 -0.765359 1.8738 37.6506 16.7094 24.3852 179.808 29.6467 103.854 -57.9364 11.383 -2.3234 81.7082 -9.89347 -4.54776 39.3136 -0.876574 -3.24608 0.430436 8.03011 -90.6684 10.8151 0.548566 -1.38016 -0.856467 0.487302 -1.40297 -23.3882 0.937972 -1.15153 -3.37557 0.937973 -1.15153 90.9242 -39.7831 -101.492 31.451 -15.5633 18.2741 -18.2376 -3.16231 -72.2615 -26.3033 -1.58623 1.88794 -95.3239 -48.5978 70.9098 -32.994 14.9681 18.9608 18.3433 -7.64962 -90.068 31.642 3.05691 5.93588 -0.400068 4.78914 4.89391 8.76849 4.18313 1.5595 
29.1652 89.1208 -228.117 -69.0023 -81.305 -66.1294 -167.921 30.4818 91.4148 -78.7788 4.52355 0.855506 61.3032 0.0806909 2.36665 41.3232 20.9643 24.1752 178.234 24.1435 100.497 -56.526 11.5932 -2.81362 84.5498 -11.2405 -4.82926 43.4627 -1.10838 -3.43731 0.375815 7.91639 -90.3847 11.0445 0.569721 -0.821604 -0.626624 0.533016 -0.845878 -23.1617 0.790314 -0.612381 -3.14902 0.790306 -0.612401 91.2175 -39.0559 -101.182 31.6573 -15.468 12.7185 -16.6108 -2.87868 -74.0754 -27.5845 -1.41777 0.813945 -95.1645 -48.6023 71.1481 -34.9118 15.3048 22.3196 17.7187 -4.4336 -84.4361 36.0169 4.16249 7.6843 0.0804901 4.14505 4.24745 8.01421 3.60474 1.49896 
29.2648 89.5484 -220.935 -61.2732 -81.5252 -60.1762 -168.444 38.5806 88.3161 -74.3607 2.84262 0.0909623 62.9691 2.19421 4.80157 40.249 21.3475 27.1341 177.684 19.3781 97.4598 -55.474 6.96588 -3.63758 83.8333 -10.9792 -4.79939 47.7596 -2.91691 -8.70899 0.398021 7.78035 -90.112 11.3137 0.739858 -0.297327 -0.357081 0.726055 -0.329607 -22.894 0.795003 -0.0612064 -2.88132 0.795004 -0.0612104 91.3678 -38.5658 -101.052 32.7094 -15.3389 8.68252 -18.025 -1.60037 -78.2512 -27.6066 -1.31677 0.374616 -95.1798 -48.9219 71.2221 -36.6414 15.098 29.1998 14.5397 -5.5014 -85.1469 36.6374 4.33654 8.07658 0.207109 3.72814 3.55222 8.09575 3.28445 1.43329 
29.4586 90.8627 -212.523 -72.2619 -79.4914 -72.1864 -168.687 41.2566 88.0786 -65.2901 0.367147 -1.458 65.5421 2.07632 1.57298 38.484 18.7591 26.3943 178.512 11.7292 94.8869 -51.683 3.05952 -5.60688 79.191 -9.21893 -4.41261 53.6867 -3.43441 -8.54482 0.779649 7.8498 -89.8857 11.1747 1.60494 0.0704762 -0.495277 1.60649 -0.000258738 -23.0377 1.50954 0.549676 -3.02503 1.50954 0.549667 91.8199 -36.777 -100.738 34.5961 -16.6264 5.516 -19.4149 0.187777 -83.0357 -28.2437 -0.896 -1.52354 -93.8247 -48.0373 72.982 -40.0471 15.2495 35.5524 13.4317 -6.89488 -87.3146 35.9899 4.01274 7.38859 -0.471746 3.0646 3.77452 9.40277 2.53185 0.358475 
